# xmcd
#
# Track frame offsets: 
#        150
#        9980
#        19703
#        30288
#        41703
#        54845
#        66801
#        78233
#        91204
#        101752
#        111326
#        121071
#        134119
#        146716
#        156989
#        167559
#        179416
#        192555
#        205302
#        217014
#        229180
#        240088
#        251735
#        261964
#        274838
#        286725
#        296695
#        306268
#        317928
#        328778
#        339638
#
# Disc length: 4683 seconds
#
# Revision: 0
# Processed by: cddbd v1.5.2PL0 Copyright (c) Steve Scherf et al.
# Submitted via: ExactAudioCopy v1.0b3
#
DISCID=cd12491f
DTITLE=Otis Williams and the Charms - Ivory Tower [CD2]
DYEAR=1900
DGENRE=R&B
TTITLE0=Ivory Tower
TTITLE1=One Night Only
TTITLE2=It's All Over
TTITLE3=Heart of a Rose
TTITLE4=I Offer You
TTITLE5=I'll Be True
TTITLE6=Boom Diddy Boom Boom
TTITLE7=I'd Like to Thank You Mr. DJ
TTITLE8=Whirlwind
TTITLE9=Gypsy Lady
TTITLE10=I'll Remember You
TTITLE11=Blues Stay Away from Me
TTITLE12=Pardon Me
TTITLE13=Walking After Midnight
TTITLE14=I'm Waiting Just for You
TTITLE15=No Got De Woman
TTITLE16=Nowhere on Earth
TTITLE17=One Kind Word from You
TTITLE18=United
TTITLE19=Don't Deny Me
TTITLE20=Dynamite Darling
TTITLE21=Well Oh Well
TTITLE22=Could this be Magic
TTITLE23=Oh Julie
TTITLE24=Burnin' Lips
TTITLE25=Let Some Love in your Heart
TTITLE26=Red Hot Lovwe (Oo This Love)
TTITLE27=Don't Wake Up the Kids
TTITLE28=You'll Remain Forever
TTITLE29=My Friends
TTITLE30=The Secret
EXTD=
EXTT0=
EXTT1=
EXTT2=
EXTT3=
EXTT4=
EXTT5=
EXTT6=
EXTT7=
EXTT8=
EXTT9=
EXTT10=
EXTT11=
EXTT12=
EXTT13=
EXTT14=
EXTT15=
EXTT16=
EXTT17=
EXTT18=
EXTT19=
EXTT20=
EXTT21=
EXTT22=
EXTT23=
EXTT24=
EXTT25=
EXTT26=
EXTT27=
EXTT28=
EXTT29=
EXTT30=
PLAYORDER=
